<svg width="50" height="50" viewBox="0 0 50 50" fill="none" xmlns="http://www.w3.org/2000/svg">
<path d="M0 12.8859L4.01426 28.3721H4.0127C4.29668 29.3615 4.44502 30.3907 4.44502 31.4319L5.1625 46.1041C5.19902 46.8512 5.81543 47.4382 6.56338 47.4382C7.3709 47.4382 8.03252 46.7971 8.05811 45.9899L8.59951 28.8379C8.59951 27.8051 9.75381 26.1412 12.1065 28.9194C7.6957 20.4879 0.000195313 12.8861 0 12.8859Z" fill="#656566"/>
<path d="M6.57334 46.1042C6.52109 31.7789 6.9916 31.0317 6.22832 28.3721H6.22988L3.07334 16.1949C1.26973 14.1403 9.76563e-05 12.886 0 12.8859L4.01426 28.372H4.0127C4.53027 30.1752 4.31602 29.7349 5.1625 46.1041C5.21299 47.1385 6.33271 47.7743 7.28135 47.2537C6.87783 47.0238 6.59756 46.5998 6.57334 46.1042Z" fill="#545456"/>
<path d="M49.6579 44.2986C49.6579 44.2986 45.3033 39.0705 38.7323 35.3855C37.4767 34.6813 35.9298 34.7617 34.7375 35.5686C33.1348 36.6535 31.1362 37.1714 29.2726 37.1714C23.7433 37.1714 21.3582 30.8832 21.3582 30.8832L9.43848 4.38387C8.14951 1.51863 5.71504 2.88719 5.71221 2.88875C3.29014 4.34178 0 7.33651 0 12.8859C0 12.8859 10.647 24.6718 14.2245 33.2905C15.6617 36.7528 16.8628 39.716 18.0701 42.023C18.0701 42.023 20.8177 47.4383 26.1911 47.4383H47.9792C49.5918 47.4382 50.551 45.6413 49.6579 44.2986Z" fill="#FF605F"/>
<path d="M20.9258 41.9137C19.7185 39.5601 18.5175 36.5372 17.0802 33.0051C14.5272 26.7306 8.37432 18.8108 5.05947 14.7891C3.11484 12.43 2.78252 9.12253 4.24512 6.43767C5.17012 4.73952 6.4292 3.50408 7.61553 2.63025C6.61787 2.37976 5.71387 2.88786 5.7123 2.88884C3.29014 4.34177 0 7.3365 0 12.8858C0 12.8858 10.647 24.6717 14.2245 33.2904C15.6617 36.7527 16.8628 39.7159 18.0701 42.0229C18.0701 42.0229 20.8177 47.4382 26.1911 47.4382H29.0467C23.6732 47.4382 20.9258 41.9137 20.9258 41.9137Z" fill="#B94545"/>
</svg>
